<svg width="34" height="34" viewBox="0 0 34 34" fill="none" xmlns="http://www.w3.org/2000/svg">
<path d="M33.8906 17C33.8906 17.2859 33.777 17.5602 33.5749 17.7624C33.3727 17.9645 33.0984 18.0781 32.8125 18.0781H18.0781V32.8125C18.0781 33.0984 17.9645 33.3727 17.7624 33.5749C17.5602 33.777 17.2859 33.8906 17 33.8906C16.7141 33.8906 16.4398 33.777 16.2377 33.5749C16.0355 33.3727 15.9219 33.0984 15.9219 32.8125V18.0781H1.1875C0.901563 18.0781 0.627338 17.9645 0.42515 17.7624C0.222963 17.5602 0.109375 17.2859 0.109375 17C0.109375 16.7141 0.222963 16.4398 0.42515 16.2377C0.627338 16.0355 0.901563 15.9219 1.1875 15.9219H15.9219V1.1875C15.9219 0.901563 16.0355 0.627338 16.2377 0.42515C16.4398 0.222963 16.7141 0.109375 17 0.109375C17.2859 0.109375 17.5602 0.222963 17.7624 0.42515C17.9645 0.627338 18.0781 0.901563 18.0781 1.1875V15.9219H32.8125C33.0984 15.9219 33.3727 16.0355 33.5749 16.2377C33.777 16.4398 33.8906 16.7141 33.8906 17Z" fill="#E4ECFF"/>
</svg>
