<svg width="52" height="52" viewBox="0 0 52 52" fill="none" xmlns="http://www.w3.org/2000/svg">
<circle cx="26" cy="26" r="26" fill="#DEF4F1"/>
<path d="M17.7046 20.668C17.8246 18.268 18.6646 16.42 20.2246 15.124C21.8086 13.804 23.8846 13.144 26.4526 13.144C28.2046 13.144 29.7046 13.456 30.9526 14.08C32.2006 14.68 33.1366 15.508 33.7606 16.564C34.4086 17.596 34.7326 18.772 34.7326 20.092C34.7326 21.604 34.3366 22.888 33.5446 23.944C32.7766 24.976 31.8526 25.672 30.7726 26.032V26.176C32.1646 26.608 33.2446 27.376 34.0126 28.48C34.8046 29.584 35.2006 31 35.2006 32.728C35.2006 34.168 34.8646 35.452 34.1926 36.58C33.5446 37.708 32.5726 38.596 31.2766 39.244C30.0046 39.868 28.4686 40.18 26.6686 40.18C23.9566 40.18 21.7486 39.496 20.0446 38.128C18.3406 36.76 17.4406 34.744 17.3446 32.08H22.2406C22.2886 33.256 22.6846 34.204 23.4286 34.924C24.1966 35.62 25.2406 35.968 26.5606 35.968C27.7846 35.968 28.7206 35.632 29.3686 34.96C30.0406 34.264 30.3766 33.376 30.3766 32.296C30.3766 30.856 29.9206 29.824 29.0086 29.2C28.0966 28.576 26.6806 28.264 24.7606 28.264H23.7166V24.124H24.7606C28.1686 24.124 29.8726 22.984 29.8726 20.704C29.8726 19.672 29.5606 18.868 28.9366 18.292C28.3366 17.716 27.4606 17.428 26.3086 17.428C25.1806 17.428 24.3046 17.74 23.6806 18.364C23.0806 18.964 22.7326 19.732 22.6366 20.668H17.7046Z" fill="#673DE6"/>
</svg>
