<svg width="52" height="52" viewBox="0 0 52 52" fill="none" xmlns="http://www.w3.org/2000/svg">
<circle cx="26" cy="26" r="26" fill="#DEF4F1"/>
<path d="M19.6561 34.312C21.9601 32.392 23.7961 30.796 25.1641 29.524C26.5321 28.228 27.6721 26.884 28.5841 25.492C29.4961 24.1 29.9521 22.732 29.9521 21.388C29.9521 20.164 29.6641 19.204 29.0881 18.508C28.5121 17.812 27.6241 17.464 26.4241 17.464C25.2241 17.464 24.3001 17.872 23.6521 18.688C23.0041 19.48 22.6681 20.572 22.6441 21.964H17.7481C17.8441 19.084 18.6961 16.9 20.3041 15.412C21.9361 13.924 24.0001 13.18 26.4961 13.18C29.2321 13.18 31.3321 13.912 32.7961 15.376C34.2601 16.816 34.9921 18.724 34.9921 21.1C34.9921 22.972 34.4881 24.76 33.4801 26.464C32.4721 28.168 31.3201 29.656 30.0241 30.928C28.7281 32.176 27.0361 33.688 24.9481 35.464H35.5681V39.64H17.7841V35.896L19.6561 34.312Z" fill="#673DE6"/>
</svg>
